<?xml version="1.0" standalone="no"?>
<!DOCTYPE svg PUBLIC "-//W3C//DTD SVG 20010904//EN"
 "http://www.w3.org/TR/2001/REC-SVG-20010904/DTD/svg10.dtd">
<svg version="1.0" xmlns="http://www.w3.org/2000/svg"
 width="2112.000000pt" height="2112.000000pt" viewBox="0 0 2112.000000 2112.000000"
 preserveAspectRatio="xMidYMid meet">
<metadata>
Created by potrace 1.14, written by Peter Selinger 2001-2017
</metadata>
<g transform="translate(0.000000,2112.000000) scale(0.100000,-0.100000)"
fill="#000000" stroke="none">
<path d="M8558 21115 c-2 -1 -43 -5 -93 -9 -49 -4 -103 -8 -120 -11 -16 -2
-48 -6 -70 -9 -50 -6 -215 -35 -235 -41 -8 -2 -28 -7 -45 -10 -16 -3 -57 -12
-90 -20 -33 -9 -70 -18 -82 -20 -74 -17 -309 -97 -408 -140 -35 -15 -632 -279
-690 -305 -210 -94 -761 -337 -839 -370 -196 -82 -395 -189 -566 -302 -102
-68 -285 -202 -305 -224 -5 -5 -39 -35 -75 -64 -88 -74 -320 -304 -400 -397
-36 -41 -70 -81 -75 -87 -6 -6 -51 -63 -100 -126 -245 -314 -470 -698 -670
-1143 -40 -89 -170 -422 -200 -512 -153 -461 -289 -1016 -350 -1420 -19 -131
-54 -377 -59 -420 -12 -107 -25 -233 -31 -295 -11 -122 -14 -155 -20 -245 -4
-49 -8 -110 -10 -135 -25 -305 -25 -1278 0 -1550 2 -25 6 -94 10 -155 3 -60 8
-126 10 -145 2 -19 6 -71 10 -115 9 -121 15 -178 30 -320 8 -71 17 -152 20
-180 4 -46 11 -99 20 -165 2 -14 11 -81 20 -149 9 -69 18 -127 19 -130 2 -3 7
-31 10 -61 4 -30 18 -122 31 -205 27 -166 29 -176 50 -290 8 -44 17 -91 19
-105 16 -95 87 -434 132 -635 161 -708 334 -1304 609 -2100 76 -220 349 -922
420 -1080 13 -27 35 -79 50 -115 15 -36 43 -98 61 -138 19 -41 34 -75 34 -77
0 -12 223 -481 334 -705 162 -324 249 -490 409 -775 586 -1047 1241 -1972
1982 -2801 127 -142 244 -264 449 -469 284 -283 372 -366 591 -555 60 -52 115
-99 121 -105 71 -63 304 -248 449 -356 719 -535 1428 -909 2122 -1119 476
-145 894 -208 1343 -204 194 1 261 5 383 19 96 12 127 17 202 30 44 8 96 17
115 20 157 27 569 156 676 213 29 16 152 71 229 104 39 17 75 34 80 38 6 4 28
14 50 22 22 9 65 27 95 41 30 13 89 39 130 57 41 18 108 48 148 66 41 19 76
34 78 34 3 0 31 12 62 26 48 22 368 163 622 275 68 30 267 130 335 168 22 13
60 35 85 49 67 38 246 159 315 211 769 587 1325 1436 1699 2597 43 135 127
436 156 559 11 50 23 99 25 110 3 11 8 34 11 50 3 17 14 68 24 115 10 47 21
101 25 120 3 19 10 58 15 85 5 28 11 61 14 75 2 14 7 41 10 60 14 81 17 98 26
165 6 39 12 81 15 95 2 14 7 49 10 79 4 30 8 63 11 74 2 11 6 45 9 76 3 31 7
67 9 81 3 14 7 52 10 85 3 33 8 80 10 105 10 89 16 156 21 240 3 47 7 108 10
135 26 315 27 1237 0 1615 -1 25 -6 88 -9 140 -3 52 -8 115 -11 140 -2 25 -6
81 -10 125 -3 44 -7 96 -10 115 -4 33 -7 65 -20 208 -3 31 -8 68 -10 82 -2 14
-7 52 -10 85 -3 33 -8 71 -10 85 -2 14 -7 45 -10 70 -9 73 -13 100 -51 355
-15 99 -28 189 -29 200 -2 11 -6 36 -9 55 -12 64 -35 195 -40 220 -3 14 -16
88 -30 165 -15 77 -30 158 -36 180 -5 22 -25 121 -44 220 -52 272 -148 689
-211 915 -17 62 -46 164 -60 210 -9 30 -18 63 -20 72 -24 104 -262 834 -363
1113 -22 61 -56 155 -76 210 -20 55 -40 109 -45 120 -5 11 -26 65 -46 120 -21
55 -44 116 -52 135 -21 50 -28 66 -58 145 -15 39 -33 84 -40 100 -7 17 -39 93
-71 170 -69 170 -199 472 -247 575 -19 41 -56 122 -82 180 -77 171 -317 655
-327 658 -4 2 -8 9 -8 15 0 11 -49 101 -145 272 -15 28 -78 131 -140 230 -104
168 -169 274 -205 336 -77 134 -155 265 -160 269 -9 8 -80 119 -80 125 0 3 -5
11 -10 18 -11 13 -163 244 -189 288 -29 48 -294 427 -418 598 -77 106 -217
287 -224 289 -5 2 -9 8 -9 13 0 5 -7 17 -14 26 -8 10 -74 92 -147 183 -471
589 -1046 1190 -1544 1616 -83 71 -170 145 -194 164 -24 19 -63 51 -86 70 -70
58 -283 220 -390 297 -55 40 -104 76 -110 80 -54 44 -500 328 -600 383 -22 12
-53 29 -70 39 -179 106 -472 248 -732 357 -314 131 -794 275 -1033 310 -19 3
-42 7 -50 9 -24 7 -209 33 -285 41 -38 3 -81 8 -95 11 -29 4 -557 13 -562 8z"/>
</g>
</svg>
